<?xml version="1.0" standalone="no"?>
<!DOCTYPE svg PUBLIC "-//W3C//DTD SVG 20010904//EN"
 "http://www.w3.org/TR/2001/REC-SVG-20010904/DTD/svg10.dtd">
<svg version="1.0" xmlns="http://www.w3.org/2000/svg"
 width="600.000000pt" height="600.000000pt" viewBox="0 0 600.000000 600.000000"
 preserveAspectRatio="xMidYMid meet">
<metadata>
Created by potrace 1.16, written by Peter Selinger 2001-2019
</metadata>
<g transform="translate(0.000000,600.000000) scale(0.100000,-0.100000)"
fill="#000000" stroke="none">
<path d="M2685 5990 c-693 -77 -1324 -379 -1810 -865 -496 -496 -800 -1143
-866 -1841 -17 -183 -6 -573 20 -739 53 -329 147 -622 291 -905 407 -799 1149
-1376 2020 -1570 361 -81 803 -92 1169 -29 479 82 907 268 1309 569 155 116
435 391 548 540 339 443 528 890 611 1445 25 171 25 639 0 810 -80 537 -270
998 -582 1409 -477 630 -1162 1035 -1965 1161 -122 20 -615 29 -745 15z m2075
-1683 c19 -12 43 -38 54 -57 21 -35 21 -42 21 -1250 0 -1353 5 -1250 -67
-1302 l-33 -23 -1737 0 -1737 0 -27 21 c-15 11 -37 33 -48 48 -21 27 -21 31
-21 1256 l0 1229 21 28 c11 15 36 38 54 51 l33 22 1727 0 1727 0 33 -23z"/>
<path d="M2356 3414 c349 -305 641 -553 648 -551 12 5 1185 1025 1246 1083
l25 24 -1278 0 -1278 0 637 -556z"/>
<path d="M1470 2960 l0 -821 23 18 c54 42 907 807 906 812 0 5 -758 668 -889
779 l-40 34 0 -822z"/>
<path d="M4063 3379 c-254 -222 -459 -407 -456 -412 10 -17 915 -819 919 -815
2 3 3 370 2 817 l-3 812 -462 -402z"/>
<path d="M3230 2650 c-147 -130 -179 -150 -237 -150 -50 0 -73 16 -226 149
-70 62 -131 111 -135 109 -5 -2 -203 -176 -441 -388 l-432 -385 620 -3 c341
-1 900 -1 1244 0 l624 3 -414 370 c-227 204 -426 380 -441 392 l-27 21 -135
-118z"/>
</g>
</svg>
