<?xml version="1.0" standalone="no"?>
<!DOCTYPE svg PUBLIC "-//W3C//DTD SVG 20010904//EN"
 "http://www.w3.org/TR/2001/REC-SVG-20010904/DTD/svg10.dtd">
<svg version="1.0" xmlns="http://www.w3.org/2000/svg"
 width="193.000000pt" height="260.000000pt" viewBox="0 0 193.000000 260.000000"
 preserveAspectRatio="xMidYMid meet">
<metadata>
Created by potrace 1.16, written by Peter Selinger 2001-2019
</metadata>
<g transform="translate(0.000000,260.000000) scale(0.100000,-0.100000)"
fill="#000000" stroke="none">
<path d="M880 2500 c-142 -20 -255 -74 -350 -170 -118 -117 -176 -276 -187
-502 l-6 -128 130 0 129 0 11 128 c12 142 33 216 84 287 66 92 164 132 305
123 213 -13 315 -144 331 -425 l6 -113 130 0 130 0 -6 133 c-9 226 -67 377
-192 502 -105 105 -225 157 -390 168 -38 3 -95 2 -125 -3z"/>
<path d="M275 1601 c-76 -19 -145 -77 -179 -151 -20 -44 -21 -59 -21 -560 l0
-515 30 -54 c16 -29 45 -66 64 -82 74 -61 60 -60 817 -57 l689 3 47 27 c25 16
61 45 78 65 60 73 61 88 58 639 l-3 499 -31 55 c-33 60 -99 112 -162 130 -43
11 -1339 12 -1387 1z m775 -456 c53 -28 100 -103 100 -162 -1 -38 -32 -103
-64 -132 -25 -24 -26 -29 -26 -133 0 -121 -11 -156 -55 -176 -40 -18 -62 -15
-97 17 l-33 29 -3 118 c-4 119 -4 119 -37 156 -136 149 35 374 215 283z"/>
</g>
</svg>
